<svg width="482" height="482" xmlns="http://www.w3.org/2000/svg" xmlns:xlink="http://www.w3.org/1999/xlink" xml:space="preserve" overflow="hidden"><g><path d="M240.93 50.1832C135.617 50.1832 50.2435 135.556 50.2435 240.869 50.2435 346.182 135.617 431.556 240.93 431.556 346.243 431.556 431.616 346.182 431.616 240.869 431.663 135.604 346.366 50.2304 241.1 50.1832 241.044 50.1832 240.986 50.1832 240.93 50.1832ZM240.93 336.396C240.93 336.396 148.195 265.482 148.195 208.209 148.195 170.02 206.562 129.111 240.93 197.299 275.297 129.111 333.665 170.02 333.665 208.209 333.665 265.482 240.93 336.396 240.93 336.396Z" stroke="#FFFFFF" stroke-width="19" fill="#C00000"/></g></svg>