<svg
      xmlns="http://www.w3.org/2000/svg"
      width="224.225"
      height="312.808"
      version="1.1"
    >
      <g transform="translate(-259.935 -369.777)">
        <g display="inline" transform="translate(-1383.997 92.135)">
          <g>
            <g>
              <g display="inline" transform="translate(-5059.956 3024.952)">
                <rect
                  width="223.228"
                  height="311.811"
                  x="6704.386"
                  y="-2746.811"
                  fill="#fff"
                  fillOpacity="1"
                  stroke="#000"
                  strokeDasharray="none"
                  strokeMiterlimit="4"
                  strokeOpacity="1"
                  strokeWidth="0.997"
                  display="inline"
                  rx="10.63"
                  ry="10.63"
                ></rect>
              </g>
            </g>
            <g fill="#000" fillOpacity="1" transform="translate(.576)">
              <path
                d="M3650.172-2493.73v-9.344h8.587v-15.398h-42.932v-10.865l46.453-70.08 7.59.026v70.054h13.132v10.865h-13.132l-.252 15.399h7.197v9.343zm8.587-80.04l-29.493 44.432h29.493z"
                display="inline"
                transform="translate(563.337 1075.282) scale(.30106)"
              ></path>
              <path
                d="M4273.157-1766.094v9.344h-8.586v15.4h42.931v10.864l-46.452 70.08-7.59-.026v-70.054h-13.133v-10.865h13.132l.253-15.399h-7.198v-9.344zm-8.586 80.04l29.493-44.432h-29.493z"
                display="inline"
                transform="translate(563.337 1075.282) scale(.30106)"
              ></path>
              <path
                d="M1797.658 361.522c2.88-5.776 4.976-11.701 5.349-18.037.341-2.332-1.075-2.371-1.289-.729-4.076 15.593-25.762 11.37-25.017-3.296.605-11.895 12.42-14.454 18.583-10.565 2.433 1.433 2.296.575.967-.912-9.154-10.211-3.61-23.361 8.762-23.602 13.38.793 16.85 14.87 8.644 23.148-1.02.995-3.284 4.192.123 1.957 8.287-5.888 19.787.442 19.553 9.52-.433 16.74-20.84 17.988-25.204 4.006-.42-1.55-1.629-2.329-1.295.304.605 4.767 1.857 11.954 5.438 18.206z"
                display="inline"
              ></path>
              <path
                d="M1698.126 361.522c2.879-5.776 4.976-11.701 5.348-18.037.341-2.332-1.075-2.371-1.288-.729-4.077 15.593-25.763 11.37-25.017-3.296.604-11.895 12.419-14.454 18.582-10.565 2.433 1.433 2.296.575.968-.912-9.155-10.211-3.61-23.361 8.76-23.602 13.38.793 16.852 14.87 8.645 23.148-1.02.995-3.283 4.192.123 1.957 8.287-5.888 19.787.442 19.553 9.52-.433 16.74-20.84 17.988-25.203 4.006-.42-1.55-1.63-2.329-1.295.304.605 4.767 1.856 11.954 5.437 18.206z"
                display="inline"
              ></path>
              <path
                d="M1812.36 503.228c-2.879 5.775-4.975 11.7-5.348 18.037-.341 2.332 1.075 2.371 1.288.729 4.077-15.593 25.763-11.37 25.018 3.296-.605 11.895-12.42 14.454-18.583 10.565-2.433-1.433-2.296-.575-.968.912 9.155 10.211 3.61 23.361-8.76 23.602-13.38-.793-16.852-14.87-8.645-23.148 1.02-.995 3.283-4.192-.123-1.957-8.287 5.888-19.787-.442-19.553-9.52.433-16.74 20.84-17.988 25.203-4.006.42 1.55 1.63 2.328 1.295-.304-.604-4.767-1.856-11.954-5.437-18.206z"
                display="inline"
              ></path>
              <path
                d="M1712.828 503.228c-2.88 5.775-4.976 11.7-5.348 18.037-.342 2.332 1.074 2.371 1.288.729 4.076-15.593 25.762-11.37 25.017 3.296-.605 11.895-12.42 14.454-18.583 10.565-2.433-1.433-2.296-.575-.967.912 9.154 10.211 3.61 23.361-8.762 23.602-13.38-.793-16.85-14.87-8.644-23.148 1.02-.995 3.284-4.192-.123-1.957-8.287 5.888-19.787-.442-19.553-9.52.433-16.74 20.84-17.988 25.204-4.006.42 1.55 1.629 2.328 1.295-.304-.605-4.767-1.857-11.954-5.438-18.206z"
                display="inline"
              ></path>
              <path
                d="M1657.813 353.563c1.193-2.446 2.353-4.721 2.985-7.401.419-2.528-.438-1.589-.925.068-.722 2.297-2.723 3.344-4.58 3.369-3.371.045-5.053-2.605-4.948-5.454-.368-2.999 2.67-5.12 4.961-4.957 1.723.123 3.224 1.052 4.133 1.775.597.315 1.234.455.345-.358-1.677-1.833-3.076-2.964-3.046-5.711.03-2.579 2.234-5.268 5.156-5.184 3.651.106 5.312 2.89 5.303 5.48-.01 1.889-.954 3.627-2.411 4.703-.945.766-.68 1.34.397.615 1.035-.892 2.267-1.282 3.545-1.31 3.49-.054 4.855 2.962 4.655 5.764-.187 2.626-2.423 5.329-5.369 5.023-2.63-.302-4.013-2.51-4.805-4.777-.262-.695-.676-.883-.664.153.607 5.057 2.491 8.204 2.505 8.201z"
                display="inline"
              ></path>
              <path
                d="M1853.121 514.82c-1.192 2.446-2.352 4.721-2.984 7.402-.42 2.527.438 1.588.925-.069.721-2.297 2.723-3.343 4.58-3.369 3.371-.045 5.053 2.605 4.948 5.454.368 2.999-2.67 5.12-4.962 4.957-1.722-.123-3.224-1.052-4.132-1.775-.597-.315-1.234-.455-.345.358 1.677 1.833 3.076 2.965 3.046 5.711-.03 2.579-2.234 5.268-5.156 5.184-3.651-.105-5.312-2.89-5.303-5.48.01-1.889.954-3.627 2.411-4.703.945-.766.68-1.34-.397-.615-1.035.892-2.267 1.283-3.545 1.31-3.49.055-4.855-2.962-4.655-5.764.187-2.626 2.423-5.329 5.369-5.023 2.63.302 4.013 2.51 4.805 4.777.262.695.676.883.664-.153-.607-5.057-2.491-8.204-2.505-8.201z"
                display="inline"
              ></path>
            </g>
          </g>
        </g>
      </g>
    </svg>