<svg
      xmlns="http://www.w3.org/2000/svg"
      width="224.225"
      height="312.808"
      version="1.1"
    >
      <g transform="translate(-259.935 -369.777)">
        <g
          fillOpacity="1"
          display="inline"
          transform="translate(-6443.953 3117.087)"
        >
          <rect
            width="223.228"
            height="311.811"
            x="6704.386"
            y="-2746.811"
            fill="#fff"
            stroke="#000"
            strokeDasharray="none"
            strokeMiterlimit="4"
            strokeOpacity="1"
            strokeWidth="0.997"
            display="inline"
            rx="10.63"
            ry="10.63"
          ></rect>
          <g
            fill="#d40000"
            transform="translate(5623.293 -1949.67) scale(.30106)"
          >
            <path d="M3706.588-2464.922c32.953-32.158 54.594-67.22 75.29-100.94 18.151 37.103 44.197 69.562 72.365 100.94-30.137 31.118-53.494 64.393-72.274 99.374-20.818-35.859-42.736-68.33-75.38-99.374z"></path>
            <path d="M3706.588-1804.437c32.953-32.158 54.594-67.22 75.29-100.94 18.151 37.103 44.197 69.562 72.365 100.94-30.137 31.118-53.494 64.393-72.274 99.374-20.818-35.859-42.736-68.33-75.38-99.374z"></path>
            <path d="M4077.053-2464.922c32.952-32.158 54.594-67.22 75.29-100.94 18.15 37.103 44.197 69.562 72.365 100.94-30.138 31.118-53.495 64.393-72.275 99.374-20.818-35.859-42.735-68.33-75.38-99.374z"></path>
            <path d="M4077.053-1804.437c32.952-32.158 54.594-67.22 75.29-100.94 18.15 37.103 44.197 69.562 72.365 100.94-30.138 31.118-53.495 64.393-72.275 99.374-20.818-35.859-42.735-68.33-75.38-99.374z"></path>
            <path d="M4240.438-1821.675c13.498-13.173 22.364-27.536 30.842-41.35 7.435 15.2 18.105 28.496 29.644 41.35-12.346 12.747-21.914 26.378-29.607 40.708-8.528-14.69-17.506-27.991-30.88-40.708z"></path>
            <path d="M3618.577-2436.54c13.499-13.173 22.364-27.536 30.842-41.349 7.436 15.199 18.105 28.495 29.644 41.349-12.346 12.747-21.914 26.378-29.607 40.708-8.528-14.69-17.506-27.991-30.879-40.708z"></path>
            <path
              d="M3650.172-2493.73v-9.344h8.587v-15.398h-42.932v-10.865l46.453-70.08 7.59.026v70.054h13.132v10.865h-13.132l-.252 15.399h7.197v9.343zm8.587-80.04l-29.493 44.432h29.493z"
              display="inline"
            ></path>
            <path
              d="M4273.157-1766.094v9.344h-8.586v15.4h42.931v10.864l-46.452 70.08-7.59-.026v-70.054h-13.133v-10.865h13.132l.253-15.399h-7.198v-9.344zm-8.586 80.04l29.493-44.432h-29.493z"
              display="inline"
            ></path>
          </g>
        </g>
      </g>
    </svg>