<svg
      xmlns="http://www.w3.org/2000/svg"
      width="224.225"
      height="312.808"
      version="1.1"
    >
      <g transform="translate(-259.935 -369.777)">
        <g display="inline" transform="translate(-1760.077 198.15)">
          <g>
            <g fillOpacity="1" transform="translate(-4683.875 2918.937)">
              <rect
                width="223.228"
                height="311.811"
                x="6704.386"
                y="-2746.811"
                fill="#fff"
                stroke="#000"
                strokeDasharray="none"
                strokeMiterlimit="4"
                strokeOpacity="1"
                strokeWidth="0.997"
                display="inline"
                rx="10.63"
                ry="10.63"
              ></rect>
              <g
                fill="#d40000"
                transform="translate(5623.293 -1949.67) scale(.30106)"
              >
                <path
                  d="M3650.172-2493.73v-9.344h8.587v-15.398h-42.932v-10.865l46.453-70.08 7.59.026v70.054h13.132v10.865h-13.132l-.252 15.399h7.197v9.343zm8.587-80.04l-29.493 44.432h29.493z"
                  display="inline"
                ></path>
                <path
                  d="M4273.157-1766.094v9.344h-8.586v15.4h42.931v10.864l-46.452 70.08-7.59-.026v-70.054h-13.133v-10.865h13.132l.253-15.399h-7.198v-9.344zm-8.586 80.04l29.493-44.432h-29.493z"
                  display="inline"
                ></path>
              </g>
            </g>
          </g>
          <path
            fill="#d40000"
            fillOpacity="1"
            d="M2029.266 233.12c-1.583-3.472-1.756-9.405 2.972-10.207 3.562-.459 5.011 1.198 5.3 3.741.142.743.561.789.694-.058.205-2.61 2.787-4.132 4.807-3.75 5.526.946 5.204 7.029 3.398 11.156-2.73 5.48-5.6 8.937-8.245 14.452-3.038-5.741-6.507-10.406-8.926-15.333z"
            display="inline"
          ></path>
          <path
            fill="#d40000"
            fillOpacity="1"
            d="M2065.508 198.19c7.144-.474 10.868 5.627 11.595 10.437.433.763.67.548.837-.043.35-6.174 5.875-11.22 10.992-10.53 8.328.108 13.39 9.375 11.967 17.219-1.739 9.581-6.9 15.35-10.808 21.293-4.421 6.152-10.373 15.04-12.29 19.317 0 0-6.048-9.205-13.917-20.03-5.262-7.238-9.473-15.082-9.865-21.835-.448-7.716 2.719-14.632 11.489-15.828z"
            display="inline"
          ></path>
          <path
            fill="#d40000"
            fillOpacity="1"
            d="M2175.04 198.19c7.145-.474 10.869 5.627 11.596 10.437.433.763.67.548.837-.043.349-6.174 5.875-11.22 10.992-10.53 8.328.108 13.39 9.375 11.967 17.219-1.739 9.581-6.9 15.35-10.808 21.293-4.421 6.152-10.373 15.04-12.29 19.317 0 0-6.049-9.205-13.918-20.03-5.261-7.238-9.473-15.082-9.865-21.835-.448-7.716 2.72-14.632 11.49-15.828z"
            display="inline"
          ></path>
          <path
            fill="#d40000"
            fillOpacity="1"
            d="M2065.508 454.53c7.144.475 10.868-5.627 11.595-10.436.433-.764.67-.549.837.042.35 6.174 5.875 11.22 10.992 10.53 8.328-.108 13.39-9.375 11.967-17.218-1.739-9.582-6.9-15.351-10.808-21.293-4.421-6.153-10.373-15.04-12.29-19.317 0 0-6.048 9.204-13.917 20.03-5.262 7.238-9.473 15.082-9.865 21.835-.448 7.715 2.719 14.631 11.489 15.827z"
            display="inline"
          ></path>
          <path
            fill="#d40000"
            fillOpacity="1"
            d="M2175.04 454.53c7.145.475 10.869-5.627 11.596-10.436.433-.764.67-.549.837.042.349 6.174 5.875 11.22 10.992 10.53 8.328-.108 13.39-9.375 11.967-17.218-1.739-9.582-6.9-15.351-10.808-21.293-4.421-6.153-10.373-15.04-12.29-19.317 0 0-6.049 9.204-13.918 20.03-5.261 7.238-9.473 15.082-9.865 21.835-.448 7.715 2.72 14.631 11.49 15.827z"
            display="inline"
          ></path>
          <path
            fill="#d40000"
            fillOpacity="1"
            d="M2216.485 423.233c-1.583 3.472-1.757 9.406 2.971 10.208 3.562.459 5.012-1.198 5.3-3.742.142-.743.562-.788.695.059.204 2.609 2.787 4.132 4.806 3.75 5.527-.946 5.204-7.029 3.399-11.156-2.731-5.48-5.6-8.938-8.245-14.452-3.038 5.741-6.507 10.405-8.926 15.333z"
            display="inline"
          ></path>
        </g>
      </g>
    </svg>