    <svg
      xmlns="http://www.w3.org/2000/svg"
      width="224.218"
      height="312.801"
      version="1.1"
    >
      <g transform="translate(-259.938 -369.78)">
        <g
          fillOpacity="1"
          display="inline"
          transform="translate(-5774.268 2805.276)"
        >
          <rect
            width="223.228"
            height="311.811"
            x="6034.701"
            y="-2435"
            fill="#fff"
            stroke="#000"
            strokeDasharray="none"
            strokeMiterlimit="3.8"
            strokeOpacity="1"
            strokeWidth="0.99"
            display="inline"
            rx="10.63"
            ry="10.63"
          ></rect>
          <g
            fill="#d40000"
            transform="translate(5449.582 -1980.882) scale(.30106)"
          >
            <path d="M2053.16-1313.112c32.952-32.158 54.594-67.22 75.29-100.94 18.15 37.102 44.197 69.562 72.365 100.94-30.138 31.118-53.495 64.393-72.275 99.374-20.818-35.859-42.735-68.33-75.38-99.374z"></path>
            <path d="M2053.16-980.13c32.952-32.158 54.594-67.22 75.29-100.939 18.15 37.102 44.197 69.561 72.365 100.94-30.137 31.118-53.495 64.392-72.274 99.373-20.819-35.858-42.736-68.33-75.381-99.374z"></path>
            <path d="M2053.16-652.627c32.952-32.158 54.594-67.22 75.29-100.94 18.15 37.103 44.197 69.562 72.365 100.94-30.137 31.118-53.495 64.393-72.274 99.374-20.819-35.859-42.736-68.33-75.381-99.374z"></path>
            <path d="M2240.61-1146.621c32.951-32.158 54.593-67.22 75.29-100.94 18.15 37.103 44.196 69.562 72.364 100.94-30.137 31.118-53.494 64.393-72.274 99.374-20.818-35.859-42.736-68.33-75.38-99.374z"></path>
            <path d="M2423.624-1313.112c32.953-32.158 54.594-67.22 75.29-100.94 18.151 37.102 44.197 69.562 72.365 100.94-30.137 31.118-53.494 64.393-72.274 99.374-20.818-35.859-42.736-68.33-75.38-99.374z"></path>
            <path d="M2423.624-980.13c32.953-32.158 54.594-67.22 75.29-100.939 18.151 37.102 44.197 69.561 72.365 100.94-30.137 31.118-53.494 64.392-72.274 99.373-20.818-35.858-42.736-68.33-75.38-99.374z"></path>
            <path d="M2423.624-652.627c32.953-32.158 54.594-67.22 75.29-100.94 18.151 37.103 44.197 69.562 72.365 100.94-30.137 31.118-53.494 64.393-72.274 99.374-20.818-35.859-42.736-68.33-75.38-99.374z"></path>
            <path d="M2598.564-676.617c13.499-13.173 22.364-27.536 30.843-41.348 7.434 15.198 18.104 28.495 29.643 41.348-12.346 12.748-21.914 26.379-29.607 40.708-8.528-14.689-17.506-27.99-30.879-40.708z"></path>
            <path d="M1971.4-1293.956c13.5-13.174 22.364-27.536 30.843-41.35 7.435 15.2 18.105 28.496 29.643 41.35-12.345 12.747-21.913 26.378-29.606 40.707-8.528-14.689-17.507-27.99-30.88-40.707z"></path>
            <path
              d="M1984.51-1353.898c7.083-36.836 14.645-64.473 34.479-94.492h-40.307v12.922h-10.714v-24.35h58.972l7.27 11.428c-21.064 22.577-40.351 95.556-36.934 94.492z"
              display="inline"
            ></path>
            <path
              d="M2643.988-627.17c-7.082 36.835-14.645 64.472-34.478 94.49h40.306v-12.92h10.714v24.35h-58.972l-7.269-11.43c21.064-22.576 40.35-95.555 36.934-94.49z"
              display="inline"
            ></path>
          </g>
        </g>
      </g>
    </svg>