<svg
      xmlns="http://www.w3.org/2000/svg"
      width="224.218"
      height="312.801"
      version="1.1"
    >
      <g transform="translate(-259.938 -369.78)">
        <g display="inline" transform="translate(-1090.392 -113.661)">
          <g>
            <g fillOpacity="1" transform="translate(-4683.875 2918.937)">
              <rect
                width="223.228"
                height="311.811"
                x="6034.701"
                y="-2435"
                fill="#fff"
                stroke="#000"
                strokeDasharray="none"
                strokeMiterlimit="3.8"
                strokeOpacity="1"
                strokeWidth="0.99"
                display="inline"
                rx="10.63"
                ry="10.63"
              ></rect>
              <g
                fill="#d40000"
                transform="translate(5449.582 -1980.882) scale(.30106)"
              >
                <path
                  d="M1984.51-1353.898c7.083-36.836 14.645-64.473 34.479-94.492h-40.307v12.922h-10.714v-24.35h58.972l7.27 11.428c-21.064 22.577-40.351 95.556-36.934 94.492z"
                  display="inline"
                ></path>
                <path
                  d="M2643.988-627.17c-7.082 36.835-14.645 64.472-34.478 94.49h40.306v-12.92h10.714v24.35h-58.972l-7.269-11.43c21.064-22.576 40.35-95.555 36.934-94.49z"
                  display="inline"
                ></path>
              </g>
            </g>
          </g>
          <path
            fill="#d40000"
            fillOpacity="1"
            d="M1359.653 545.897c-1.583-3.472-1.756-9.405 2.971-10.208 3.562-.458 5.012 1.198 5.3 3.742.142.743.562.788.695-.058.204-2.61 2.787-4.133 4.806-3.75 5.527.945 5.204 7.028 3.399 11.155-2.73 5.48-5.6 8.938-8.245 14.452-3.038-5.741-6.507-10.405-8.926-15.333z"
            display="inline"
          ></path>
          <path
            fill="#d40000"
            fillOpacity="1"
            d="M1394.012 513.744c7.144-.474 10.869 5.627 11.596 10.437.433.763.67.548.837-.043.349-6.174 5.874-11.22 10.992-10.53 8.328.108 13.39 9.375 11.967 17.219-1.739 9.581-6.9 15.35-10.808 21.293-4.422 6.152-10.373 15.04-12.29 19.317 0 0-6.049-9.205-13.918-20.03-5.261-7.238-9.473-15.082-9.865-21.835-.448-7.716 2.72-14.632 11.49-15.828z"
            display="inline"
          ></path>
          <path
            fill="#d40000"
            fillOpacity="1"
            d="M1505.545 513.744c7.144-.474 10.869 5.627 11.595 10.437.434.763.671.548.837-.043.35-6.174 5.875-11.22 10.993-10.53 8.328.108 13.39 9.375 11.966 17.219-1.738 9.581-6.9 15.35-10.807 21.293-4.422 6.152-10.373 15.04-12.29 19.317 0 0-6.049-9.205-13.918-20.03-5.262-7.238-9.473-15.082-9.865-21.835-.448-7.716 2.72-14.632 11.49-15.828z"
            display="inline"
          ></path>
          <path
            fill="#d40000"
            fillOpacity="1"
            d="M1450.446 563.868c7.144-.474 10.869 5.628 11.596 10.437.433.764.67.548.836-.043.35-6.174 5.875-11.22 10.993-10.53 8.328.109 13.39 9.376 11.966 17.219-1.738 9.582-6.9 15.351-10.807 21.293-4.422 6.153-10.373 15.04-12.29 19.317 0 0-6.049-9.205-13.918-20.03-5.261-7.238-9.473-15.082-9.865-21.835-.448-7.715 2.72-14.632 11.49-15.828z"
            display="inline"
          ></path>
          <path
            fill="#d40000"
            fillOpacity="1"
            d="M1394.012 613.993c7.144-.475 10.869 5.627 11.596 10.436.433.764.67.549.837-.042.349-6.174 5.874-11.22 10.992-10.53 8.328.108 13.39 9.375 11.967 17.218-1.739 9.582-6.9 15.351-10.808 21.293-4.422 6.153-10.373 15.04-12.29 19.317 0 0-6.049-9.204-13.918-20.03-5.261-7.238-9.473-15.082-9.865-21.835-.448-7.715 2.72-14.632 11.49-15.827z"
            display="inline"
          ></path>
          <path
            fill="#d40000"
            fillOpacity="1"
            d="M1505.545 613.993c7.144-.475 10.869 5.627 11.595 10.436.434.764.671.549.837-.042.35-6.174 5.875-11.22 10.993-10.53 8.328.108 13.39 9.375 11.966 17.218-1.738 9.582-6.9 15.351-10.807 21.293-4.422 6.153-10.373 15.04-12.29 19.317 0 0-6.049-9.204-13.918-20.03-5.262-7.238-9.473-15.082-9.865-21.835-.448-7.715 2.72-14.632 11.49-15.827z"
            display="inline"
          ></path>
          <path
            fill="#d40000"
            fillOpacity="1"
            d="M1548.468 736.755c-1.583 3.472-1.756 9.405 2.972 10.208 3.562.458 5.011-1.199 5.3-3.742.142-.743.561-.789.694.058.205 2.61 2.787 4.133 4.807 3.75 5.526-.945 5.204-7.028 3.398-11.155-2.73-5.48-5.6-8.938-8.245-14.452-3.038 5.74-6.507 10.405-8.926 15.333z"
            display="inline"
          ></path>
          <path
            fill="#d40000"
            fillOpacity="1"
            d="M1505.545 770.084c7.144.475 10.869-5.627 11.595-10.436.434-.764.671-.549.837.042.35 6.174 5.875 11.22 10.993 10.53 8.328-.108 13.39-9.375 11.966-17.218-1.738-9.582-6.9-15.351-10.807-21.293-4.422-6.153-10.373-15.04-12.29-19.317 0 0-6.049 9.204-13.918 20.03-5.262 7.238-9.473 15.082-9.865 21.835-.448 7.715 2.72 14.632 11.49 15.827z"
            display="inline"
          ></path>
          <path
            fill="#d40000"
            fillOpacity="1"
            d="M1394.012 770.084c7.144.475 10.869-5.627 11.596-10.436.433-.764.67-.549.837.042.349 6.174 5.874 11.22 10.992 10.53 8.328-.108 13.39-9.375 11.967-17.218-1.739-9.582-6.9-15.351-10.808-21.293-4.422-6.153-10.373-15.04-12.29-19.317 0 0-6.049 9.204-13.918 20.03-5.261 7.238-9.473 15.082-9.865 21.835-.448 7.715 2.72 14.632 11.49 15.827z"
            display="inline"
          ></path>
        </g>
      </g>
    </svg>