    <svg
      xmlns="http://www.w3.org/2000/svg"
      width="224.225"
      height="312.808"
      version="1.1"
    >
      <g transform="translate(-259.935 -369.777)">
        <g display="inline" transform="translate(-6220.725 2805.276)">
          <rect
            width="223.228"
            height="311.811"
            x="6481.158"
            y="-2435"
            fill="#fff"
            fillOpacity="1"
            stroke="#000"
            strokeDasharray="none"
            strokeMiterlimit="4"
            strokeOpacity="1"
            strokeWidth="0.997"
            display="inline"
            rx="10.63"
            ry="10.63"
          ></rect>
          <g transform="translate(5727.13 -1950.525) scale(.30106)">
            <g
              fill="#d40000"
              fillOpacity="1"
              transform="translate(-1267.77 -112.909)"
            >
              <path d="M3880.859-1304.797c32.952-32.158 54.593-67.22 75.29-100.94 18.15 37.103 44.197 69.562 72.365 100.94-30.138 31.118-53.495 64.393-72.275 99.374-20.818-35.859-42.735-68.33-75.38-99.374z"></path>
              <path d="M3880.859-1087.797c32.952-32.158 54.593-67.22 75.29-100.94 18.15 37.103 44.197 69.562 72.365 100.94-30.138 31.118-53.495 64.393-72.275 99.374-20.818-35.859-42.735-68.33-75.38-99.374z"></path>
              <path d="M3880.859-865.594c32.952-32.158 54.593-67.22 75.29-100.94 18.15 37.103 44.197 69.562 72.365 100.94-30.138 31.118-53.495 64.393-72.275 99.374-20.818-35.858-42.735-68.33-75.38-99.374z"></path>
              <path d="M3880.859-649.341c32.952-32.158 54.593-67.22 75.29-100.94 18.15 37.103 44.197 69.562 72.365 100.94-30.138 31.118-53.495 64.393-72.275 99.374-20.818-35.859-42.735-68.33-75.38-99.374z"></path>
              <path d="M4068.343-977.73c32.952-32.157 54.594-67.219 75.29-100.938 18.15 37.102 44.197 69.561 72.365 100.939-30.138 31.118-53.495 64.393-72.275 99.374-20.818-35.859-42.735-68.33-75.38-99.374z"></path>
              <path d="M4251.323-1304.797c32.952-32.158 54.594-67.22 75.29-100.94 18.15 37.103 44.197 69.562 72.365 100.94-30.137 31.118-53.494 64.393-72.274 99.374-20.819-35.859-42.736-68.33-75.381-99.374z"></path>
              <path d="M4251.323-1087.797c32.952-32.158 54.594-67.22 75.29-100.94 18.15 37.103 44.197 69.562 72.365 100.94-30.137 31.118-53.494 64.393-72.274 99.374-20.819-35.859-42.736-68.33-75.381-99.374z"></path>
              <path d="M4251.323-865.594c32.952-32.158 54.594-67.22 75.29-100.94 18.15 37.103 44.197 69.562 72.365 100.94-30.137 31.118-53.494 64.393-72.274 99.374-20.819-35.858-42.736-68.33-75.381-99.374z"></path>
              <path d="M4251.323-649.341c32.952-32.158 54.594-67.22 75.29-100.94 18.15 37.103 44.197 69.562 72.365 100.94-30.137 31.118-53.494 64.393-72.274 99.374-20.819-35.859-42.736-68.33-75.381-99.374z"></path>
              <path d="M4426.564-676.617c13.499-13.173 22.364-27.536 30.842-41.348 7.436 15.198 18.105 28.495 29.644 41.348-12.346 12.748-21.914 26.379-29.607 40.708-8.528-14.689-17.506-27.99-30.879-40.708z"></path>
              <path d="M3799.4-1293.956c13.5-13.174 22.364-27.536 30.843-41.35 7.435 15.2 18.105 28.496 29.643 41.35-12.345 12.747-21.913 26.378-29.606 40.707-8.529-14.689-17.507-27.99-30.88-40.707z"></path>
              <path
                d="M3799.815-1365.606l10.053-3.129c3.793 9.95 11.46 12.884 19.57 12.253 14.555-1.131 19.386-17.1 20.478-31.22-5.672 5.892-14.197 8.887-21.456 8.595-23.193-1.227-29.129-19.446-29.345-38.535-.644-16.097 6.137-27.754 17.765-33.094 6.152-2.712 20.244-2.712 26.438.494 14.223 7.361 19.487 20.091 18.532 50.458.015 24.99-5.396 54.1-32.676 54.723-15.77 2.14-27.743-9.898-29.359-20.545zm39.485-27.382c4.732-2.941 7.403-5.7 9.525-9.839 1.741-3.396 2.33-5.159 1.834-12.191-1.279-18.12-10.959-28.392-24.993-26.352-7.828 1.138-12.101 5.442-14.558 13.446-4.536 14.778 1.214 32.077 11.986 36.062 4.86 1.797 12.339 1.277 16.206-1.126z"
                display="inline"
              ></path>
              <path
                d="M4484.179-591.314l-10.054 3.128c-3.792-9.949-11.459-12.883-19.569-12.253-14.555 1.132-19.386 17.102-20.478 31.221 5.672-5.893 14.197-8.887 21.456-8.595 23.193 1.227 29.129 19.446 29.345 38.535.644 16.097-6.137 27.754-17.765 33.094-6.152 2.712-20.244 2.712-26.438-.494-14.223-7.361-19.487-20.091-18.532-50.458-.015-24.99 5.396-54.1 32.675-54.723 15.77-2.14 27.744 9.898 29.36 20.545zm-39.485 27.382c-4.732 2.941-7.403 5.7-9.525 9.838-1.741 3.397-2.33 5.16-1.834 12.192 1.279 18.12 10.959 28.392 24.993 26.352 7.828-1.139 12.101-5.442 14.558-13.446 4.536-14.778-1.214-32.077-11.987-36.062-4.858-1.797-12.338-1.277-16.205 1.126z"
                display="inline"
              ></path>
            </g>
          </g>
        </g>
      </g>
    </svg>