<svg
      xmlns="http://www.w3.org/2000/svg"
      width="224.225"
      height="312.808"
      version="1.1"
    >
      <g transform="translate(-259.935 -369.777)">
        <g
          fillOpacity="1"
          display="inline"
          transform="translate(-5774.268 3117.087)"
        >
          <rect
            width="223.228"
            height="311.811"
            x="6034.701"
            y="-2746.811"
            fill="#fff"
            stroke="#000"
            strokeDasharray="none"
            strokeMiterlimit="4"
            strokeOpacity="1"
            strokeWidth="0.997"
            display="inline"
            rx="10.63"
            ry="10.63"
          ></rect>
          <g
            fill="#d40000"
            transform="translate(5730.642 -1948.112) scale(.30106)"
          >
            <path d="M1306.38-2134.652c32.953-32.158 54.594-67.22 75.291-100.94 18.15 37.103 44.197 69.562 72.365 100.94-30.138 31.118-53.495 64.393-72.275 99.374-20.818-35.859-42.735-68.33-75.38-99.374z"></path>
            <path d="M1661.742-1825.742c13.499-13.173 22.364-27.536 30.842-41.349 7.435 15.2 18.105 28.496 29.644 41.35-12.346 12.747-21.914 26.378-29.607 40.707-8.528-14.689-17.506-27.99-30.88-40.708z"></path>
            <path d="M1036.024-2442.515c13.499-13.173 22.364-27.536 30.842-41.349 7.435 15.199 18.105 28.495 29.644 41.35-12.346 12.746-21.914 26.377-29.607 40.707-8.528-14.69-17.506-27.991-30.879-40.708z"></path>
            <path
              d="M1033.986-2499.928v-9.092h8.839l18.814-97.227h10.705l20.736 97.227h7.134v9.092h-24.307v-9.092h6.566l-2.616-14.9h-24.531l-1.894 14.9h6.566v9.092zm43.772-34.598l-10.657-52.05-9.987 52.05z"
              display="inline"
            ></path>
            <path
              d="M1727.39-1770.247v9.091h-8.838l-18.814 97.227h-10.705l-20.736-97.227h-7.134v-9.091h24.307v9.091h-6.566l2.616 14.9h24.531l1.894-14.9h-6.566v-9.091zm-43.771 34.598l10.657 52.05 9.987-52.05z"
              display="inline"
            ></path>
          </g>
        </g>
      </g>
    </svg>