<svg
      xmlns="http://www.w3.org/2000/svg"
      width="224.225"
      height="312.808"
      version="1.1"
    >
      <g transform="translate(-259.935 -369.777)">
        <g display="inline" transform="translate(-1090.392 198.15)">
          <g>
            <g fillOpacity="1" transform="translate(-4683.875 2918.937)">
              <rect
                width="223.228"
                height="311.811"
                x="6034.701"
                y="-2746.811"
                fill="#fff"
                stroke="#000"
                strokeDasharray="none"
                strokeMiterlimit="4"
                strokeOpacity="1"
                strokeWidth="0.997"
                display="inline"
                rx="10.63"
                ry="10.63"
              ></rect>
              <g
                fill="#d40000"
                transform="translate(5730.642 -1948.112) scale(.30106)"
              >
                <path
                  d="M1033.986-2499.928v-9.092h8.839l18.814-97.227h10.705l20.736 97.227h7.134v9.092h-24.307v-9.092h6.566l-2.616-14.9h-24.531l-1.894 14.9h6.566v9.092zm43.772-34.598l-10.657-52.05-9.987 52.05z"
                  display="inline"
                ></path>
                <path
                  d="M1727.39-1770.247v9.091h-8.838l-18.814 97.227h-10.705l-20.736-97.227h-7.134v-9.091h24.307v9.091h-6.566l2.616 14.9h24.531l1.894-14.9h-6.566v-9.091zm-43.771 34.598l10.657 52.05 9.987-52.05z"
                  display="inline"
                ></path>
              </g>
            </g>
          </g>
          <path
            fill="#d40000"
            fillOpacity="1"
            d="M1359.107 232.88c-1.583-3.472-1.757-9.405 2.97-10.208 3.563-.458 5.012 1.198 5.3 3.742.143.743.562.788.695-.058.205-2.61 2.788-4.133 4.807-3.75 5.526.945 5.204 7.028 3.398 11.155-2.73 5.48-5.6 8.938-8.245 14.452-3.038-5.741-6.507-10.405-8.925-15.333z"
            display="inline"
          ></path>
          <path
            fill="#d40000"
            fillOpacity="1"
            d="M1450.39 299.285c7.144-.475 10.868 5.627 11.595 10.436.433.764.67.549.837-.042.35-6.174 5.875-11.22 10.993-10.53 8.327.108 13.389 9.375 11.966 17.218-1.739 9.582-6.9 15.351-10.808 21.293-4.421 6.153-10.373 15.04-12.29 19.317 0 0-6.048-9.204-13.917-20.03-5.262-7.238-9.473-15.082-9.865-21.835-.448-7.715 2.719-14.631 11.489-15.827z"
            display="inline"
          ></path>
          <path
            fill="#d40000"
            fillOpacity="1"
            d="M1547.486 423.567c-1.583 3.472-1.756 9.406 2.972 10.208 3.562.459 5.011-1.198 5.3-3.742.142-.743.561-.788.694.059.205 2.61 2.787 4.132 4.807 3.75 5.526-.946 5.204-7.029 3.398-11.156-2.73-5.48-5.6-8.938-8.245-14.452-3.038 5.741-6.507 10.405-8.926 15.333z"
            display="inline"
          ></path>
        </g>
      </g>
    </svg>